<svg width="122" height="128" viewBox="0 0 122 128" fill="none" xmlns="http://www.w3.org/2000/svg">
<path fill-rule="evenodd" clip-rule="evenodd" d="M66.3153 128C96.9771 128 121.833 103.144 121.833 72.482C121.833 41.8202 96.9771 16.964 66.3153 16.964C35.6535 16.964 10.7971 41.8202 10.7971 72.482C10.7971 103.144 35.6535 128 66.3153 128Z" fill="#268257" fill-opacity="0.1"/>
<path d="M113.963 60.1445C113.963 30.4216 89.8676 6.32634 60.1447 6.32634C30.4218 6.32634 6.32659 30.4216 6.32659 60.1445C6.32659 89.8675 30.4218 113.963 60.1447 113.963C89.8676 113.963 113.963 89.8675 113.963 60.1445ZM120.289 60.1445C120.289 93.3614 93.3617 120.289 60.1447 120.289C26.9277 120.289 0 93.3614 0 60.1445C2.98086e-07 26.9276 26.9277 2.98066e-07 60.1447 0C93.3617 0 120.289 26.9276 120.289 60.1445Z" fill="#268257"/>
<path d="M76.851 43.4803C78.0726 41.8767 80.3787 41.5565 81.9992 42.7654C83.6197 43.9743 83.9433 46.2564 82.7217 47.8601L62.1528 74.8604L62.148 74.8651C60.5809 76.9147 58.1952 78.1909 55.6075 78.3737C53.0194 78.5562 50.4728 77.6289 48.6267 75.8216L48.6196 75.8145L38.0002 65.3552C36.5616 63.9387 36.5544 61.6368 37.9858 60.2132C39.4172 58.7897 41.7433 58.7851 43.1819 60.2014L53.7965 70.6512L53.9281 70.7672C54.25 71.0206 54.6619 71.1495 55.0835 71.1199C55.5656 71.0859 56.0052 70.8498 56.2893 70.4783L76.851 43.4803Z" fill="#268257"/>
</svg>
