<svg xmlns:xlink="http://www.w3.org/1999/xlink" xmlns="http://www.w3.org/2000/svg" width="60" height="60" fill="none" viewBox="0 0 57 61" aria-hidden="true"><g clip-path="url(#icon-gic_svg__a)" fill="none"><path fill="#0F476B" d="M.572 21.033V52.99h47.823V21.033z"></path><path fill="#48B985" d="M36.3 23.93a10.73 10.73 0 0 0 11.887-.78 10.72 10.72 0 0 0 3.827-11.278 10.725 10.725 0 0 0-19.642-2.591 10.72 10.72 0 0 0 .781 11.89 10.7 10.7 0 0 0 3.147 2.76"></path><path fill="#147BD1" d="M.572 21.033V52.99H43.11v-24.06z"></path><path fill="#0F476B" d="M.571 21.035 13.9 23.51a10.7 10.7 0 0 1-.3-2.475z"></path><path fill="#1C72B9" d="M43.11 60.89v-7.898H.573z"></path><path fill="#87CFFD" d="M23.512 26.898a8.12 8.12 0 0 0 11.06-2.961 8 8 0 0 0 .336-.657 8.09 8.09 0 0 0-1.283-8.746 8.1 8.1 0 0 0-12.335.23 8.09 8.09 0 0 0-.95 8.787 8.1 8.1 0 0 0 3.172 3.347" style="mix-blend-mode: multiply;"></path><path fill="#EDD462" d="M27.957 28.058a5.7 5.7 0 0 0 5.149 6.472 5.7 5.7 0 0 0 6.191-5.48 5.7 5.7 0 0 0-2.85-5.134 5.7 5.7 0 0 0-1.387-.55 5.66 5.66 0 0 0-6.287 2.445 5.7 5.7 0 0 0-.816 2.247"></path><path fill="#87CFFD" d="M37.434 46.297a2.747 2.747 0 1 0 0-5.493 2.747 2.747 0 0 0 0 5.493"></path><g filter="url(#icon-gic_svg__b)" fill="none"><g clip-path="url(#icon-gic_svg__c)" fill="none"><mask id="icon-gic_svg__d" width="41" height="30" x="-1" y="3" maskUnits="userSpaceOnUse" style="mask-type: luminance;" fill="none"><path fill="#FFFFFF" d="M-.5 3h40v30h-40z"></path></mask><g fill-rule="evenodd" clip-rule="evenodd" mask="url(#icon-gic_svg__d)" fill="none"><path fill="#F7FCFF" d="M9.5 3h20v30h-20z"></path><path fill="#E31D1C" d="m19.47 11.75.03 15h-.75l.46-3.712q-5.044.907-4.627.45.417-.458.658-1.298l-4.491-2.996a2.53 2.53 0 0 0 1.285-.351q.576-.343-.577-2.376l2.268.33.857-.932 1.711 1.79h.769l-.769-4.1 1.378.77zm.003 0 1.857 2.574 1.378-.77-.769 4.101h.77l1.71-1.79.858.932 2.267-.33q-1.153 2.032-.576 2.376a2.53 2.53 0 0 0 1.284.351l-4.49 2.996q.24.84.657 1.298.416.457-4.627-.45l.46 3.712h-.75zM29.5 3h10v30h-10zM-.5 3h10v30h-10z"></path></g></g><rect width="31.718" height="30.863" x="4" y="3.5" stroke="#FFFFFF" stroke-width="3px" rx="15.432" shape-rendering="crispEdges" fill="none"></rect></g></g><defs><clipPath id="icon-gic_svg__a"><path fill="#fff" d="M.5 0h55.804v61H.5z"></path></clipPath><clipPath id="icon-gic_svg__c"><rect width="28.718" height="27.863" x="5.5" y="5" fill="#fff" rx="13.932"></rect></clipPath><filter id="icon-gic_svg__b" width="38.866" height="38.011" x="0.426" y="2" color-interpolation-filters="sRGB" filterUnits="userSpaceOnUse"><feFlood flood-opacity="0" result="BackgroundImageFix"></feFlood><feColorMatrix in="SourceAlpha" result="hardAlpha" values="0 0 0 0 0 0 0 0 0 0 0 0 0 0 0 0 0 0 127 0"></feColorMatrix><feOffset dy="2.074"></feOffset><feGaussianBlur stdDeviation="1.037"></feGaussianBlur><feComposite in2="hardAlpha" operator="out"></feComposite><feColorMatrix values="0 0 0 0 0 0 0 0 0 0 0 0 0 0 0 0 0 0 0.25 0"></feColorMatrix><feBlend in2="BackgroundImageFix" result="effect1_dropShadow_2557_135532"></feBlend><feBlend in="SourceGraphic" in2="effect1_dropShadow_2557_135532" result="shape"></feBlend></filter></defs></svg>