<svg width="69" height="60" viewBox="0 0 69 60" fill="none" xmlns="http://www.w3.org/2000/svg">
<g clip-path="url(#clip0_4606_22947)">
<path fill-rule="evenodd" clip-rule="evenodd" d="M40.3865 45.7118C40.3865 53.6018 46.7844 59.9977 54.6764 59.9977C62.5683 59.9977 68.966 53.6018 68.966 45.7118C68.966 37.822 62.5683 31.4261 54.6764 31.4261C46.7844 31.4261 40.3865 37.822 40.3865 45.7118Z" fill="#48B985"/>
<path fill-rule="evenodd" clip-rule="evenodd" d="M59.8712 30.0777C59.8712 46.6022 46.4719 59.9977 29.9428 59.9977C13.4138 59.9977 0.0144043 46.6022 0.0144043 30.0777C0.0144043 13.5531 13.4138 0.157593 29.9428 0.157593C46.4719 0.157593 59.8712 13.5531 59.8712 30.0777Z" fill="#147BD1"/>
<path fill-rule="evenodd" clip-rule="evenodd" d="M59.7554 32.3718C58.1753 31.7703 56.4679 31.4261 54.6764 31.4261C46.7842 31.4261 40.3865 37.8219 40.3865 45.7119C40.3865 49.7697 42.0866 53.424 44.8042 56.0246C53.1719 51.2237 58.9838 42.5111 59.7554 32.3718Z" fill="#017043"/>
<g filter="url(#filter0_d_4606_22947)">
<g clip-path="url(#clip1_4606_22947)">
<path fill-rule="evenodd" clip-rule="evenodd" d="M10 11.5156V46.5156H47.5V11.5156H10Z" fill="#2E42A5"/>
<rect x="9.99512" y="15.2656" width="20.0461" height="15.5914" fill="#2B409A"/>
<mask id="mask0_4606_22947" style="mask-type:luminance" maskUnits="userSpaceOnUse" x="9" y="15" width="22" height="16">
<rect x="9.99512" y="15.2656" width="20.0461" height="15.5914" fill="white"/>
</mask>
<g mask="url(#mask0_4606_22947)">
<path d="M7.76367 29.7422L12.1749 31.6769L30.1419 17.3681L32.4687 14.4932L27.7516 13.8465L20.4233 20.0126L14.5247 24.1671L7.76367 29.7422Z" fill="#F7FCFF"/>
<path d="M8.36914 31.0986L10.6164 32.2213L31.6348 14.2269H28.4793L8.36914 31.0986Z" fill="#F50100"/>
<path d="M32.2705 29.7422L27.8593 31.6769L9.89225 17.3681L7.56544 14.4932L12.2826 13.8465L19.6109 20.0126L25.5095 24.1671L32.2705 29.7422Z" fill="#F7FCFF"/>
<path d="M32.1191 30.7153L29.8718 31.838L20.922 24.1337L18.2686 23.2729L7.34071 14.5033H10.4962L21.4179 23.0647L24.319 24.0969L32.1191 30.7153Z" fill="#F50100"/>
<mask id="path-13-outside-1_4606_22947" maskUnits="userSpaceOnUse" x="7.99023" y="13.2656" width="24" height="19" fill="black">
<rect fill="white" x="7.99023" y="13.2656" width="24" height="19"/>
<path fill-rule="evenodd" clip-rule="evenodd" d="M21.1094 15.2656H18.882V21.9453H9.99023V24.1727H18.882V30.857H21.1094V24.1727H30.0363V21.9453H21.1094V15.2656Z"/>
</mask>
<path fill-rule="evenodd" clip-rule="evenodd" d="M21.1094 15.2656H18.882V21.9453H9.99023V24.1727H18.882V30.857H21.1094V24.1727H30.0363V21.9453H21.1094V15.2656Z" fill="#F50100"/>
<path d="M18.882 15.2656V13.9292H17.5456V15.2656H18.882ZM21.1094 15.2656H22.4458V13.9292H21.1094V15.2656ZM18.882 21.9453V23.2817H20.2184V21.9453H18.882ZM9.99023 21.9453V20.6089H8.65383V21.9453H9.99023ZM9.99023 24.1727H8.65383V25.5091H9.99023V24.1727ZM18.882 24.1727H20.2184V22.8362H18.882V24.1727ZM18.882 30.857H17.5456V32.1934H18.882V30.857ZM21.1094 30.857V32.1934H22.4458V30.857H21.1094ZM21.1094 24.1727V22.8362H19.773V24.1727H21.1094ZM30.0363 24.1727V25.5091H31.3727V24.1727H30.0363ZM30.0363 21.9453H31.3727V20.6089H30.0363V21.9453ZM21.1094 21.9453H19.773V23.2817H21.1094V21.9453ZM18.882 15.2656V16.602H21.1094V15.2656V13.9292H18.882V15.2656ZM18.882 21.9453H20.2184V15.2656H18.882H17.5456V21.9453H18.882ZM9.99023 21.9453V23.2817H18.882V21.9453V20.6089H9.99023V21.9453ZM9.99023 24.1727H11.3266V21.9453H9.99023H8.65383V24.1727H9.99023ZM18.882 24.1727V22.8362H9.99023V24.1727V25.5091H18.882V24.1727ZM18.882 30.857H20.2184V24.1727H18.882H17.5456V30.857H18.882ZM21.1094 30.857V29.5206H18.882V30.857V32.1934H21.1094V30.857ZM21.1094 24.1727H19.773V30.857H21.1094H22.4458V24.1727H21.1094ZM30.0363 24.1727V22.8362H21.1094V24.1727V25.5091H30.0363V24.1727ZM30.0363 21.9453H28.6999V24.1727H30.0363H31.3727V21.9453H30.0363ZM21.1094 21.9453V23.2817H30.0363V21.9453V20.6089H21.1094V21.9453ZM21.1094 15.2656H19.773V21.9453H21.1094H22.4458V15.2656H21.1094Z" fill="#F7FCFF" mask="url(#path-13-outside-1_4606_22947)"/>
</g>
<path d="M35.9028 33.138L34.4884 33.1399L35.6316 33.9781L35.7672 33.5581L35.9028 33.138Z" fill="white"/>
<path d="M36.777 33.1368L36.3399 33.1374L35.9028 33.138L35.7672 33.5581L35.6316 33.9781L35.9849 34.2371L36.3381 34.4961L36.6921 34.2361L37.046 33.9762L36.9115 33.5565L36.777 33.1368Z" fill="white"/>
<path d="M35.6316 33.9781L35.1927 35.3374L36.3381 34.4961L35.9849 34.2371L35.6316 33.9781Z" fill="white"/>
<path d="M36.6921 34.2361L36.3381 34.4961L37.4813 35.3343L37.046 33.9762L36.6921 34.2361Z" fill="white"/>
<path d="M36.9115 33.5565L37.046 33.9762L38.1914 33.1349L36.777 33.1368L36.9115 33.5565Z" fill="white"/>
<path d="M36.3417 31.7787L35.9028 33.138L36.3399 33.1374L36.777 33.1368L36.3417 31.7787Z" fill="white"/>
<path d="M36.6278 33.3424L36.339 33.3428L36.0501 33.3432L35.9605 33.6208L35.8709 33.8983L36.1043 34.0695L36.3378 34.2406L36.5717 34.0688L36.8055 33.897L36.7167 33.6197L36.6278 33.3424Z" fill="#C8102E"/>
<path d="M35.9605 33.6208L36.0501 33.3432L35.1155 33.3445L35.8709 33.8983L35.9605 33.6208Z" fill="#C8102E"/>
<path d="M36.339 33.3428L36.6278 33.3424L36.3401 32.445L36.0501 33.3432L36.339 33.3428Z" fill="#C8102E"/>
<path d="M36.7167 33.6197L36.8055 33.897L37.5624 33.3411L36.6278 33.3424L36.7167 33.6197Z" fill="#C8102E"/>
<path d="M36.1043 34.0695L35.8709 33.8983L35.5809 34.7965L36.3378 34.2406L36.1043 34.0695Z" fill="#C8102E"/>
<path d="M36.5717 34.0688L36.3378 34.2406L37.0932 34.7945L36.8055 33.897L36.5717 34.0688Z" fill="#C8102E"/>
<path d="M38.9028 24.138L37.4884 24.1399L38.6316 24.9781L38.7672 24.5581L38.9028 24.138Z" fill="white"/>
<path d="M39.777 24.1368L39.3399 24.1374L38.9028 24.138L38.7672 24.5581L38.6316 24.9781L38.9849 25.2371L39.3381 25.4961L39.6921 25.2361L40.046 24.9762L39.9115 24.5565L39.777 24.1368Z" fill="white"/>
<path d="M38.6316 24.9781L38.1927 26.3374L39.3381 25.4961L38.9849 25.2371L38.6316 24.9781Z" fill="white"/>
<path d="M39.6921 25.2361L39.3381 25.4961L40.4813 26.3343L40.046 24.9762L39.6921 25.2361Z" fill="white"/>
<path d="M39.9115 24.5565L40.046 24.9762L41.1914 24.1349L39.777 24.1368L39.9115 24.5565Z" fill="white"/>
<path d="M39.3417 22.7787L38.9028 24.138L39.3399 24.1374L39.777 24.1368L39.3417 22.7787Z" fill="white"/>
<path d="M39.6278 24.3424L39.339 24.3428L39.0501 24.3432L38.9605 24.6208L38.8709 24.8983L39.1043 25.0695L39.3378 25.2406L39.5717 25.0688L39.8055 24.897L39.7167 24.6197L39.6278 24.3424Z" fill="#C8102E"/>
<path d="M38.9605 24.6208L39.0501 24.3432L38.1155 24.3445L38.8709 24.8983L38.9605 24.6208Z" fill="#C8102E"/>
<path d="M39.339 24.3428L39.6278 24.3424L39.3401 23.445L39.0501 24.3432L39.339 24.3428Z" fill="#C8102E"/>
<path d="M39.7167 24.6197L39.8055 24.897L40.5624 24.3411L39.6278 24.3424L39.7167 24.6197Z" fill="#C8102E"/>
<path d="M39.1043 25.0695L38.8709 24.8983L38.5809 25.7965L39.3378 25.2406L39.1043 25.0695Z" fill="#C8102E"/>
<path d="M39.5717 25.0688L39.3378 25.2406L40.0932 25.7945L39.8055 24.897L39.5717 25.0688Z" fill="#C8102E"/>
</g>
<rect x="14.5" y="14.5" width="31" height="31" rx="15.5" stroke="white" stroke-width="3" shape-rendering="crispEdges"/>
</g>
</g>
<defs>
<filter id="filter0_d_4606_22947" x="10.9259" y="13" width="38.1481" height="38.1481" filterUnits="userSpaceOnUse" color-interpolation-filters="sRGB">
<feFlood flood-opacity="0" result="BackgroundImageFix"/>
<feColorMatrix in="SourceAlpha" type="matrix" values="0 0 0 0 0 0 0 0 0 0 0 0 0 0 0 0 0 0 127 0" result="hardAlpha"/>
<feOffset dy="2.07407"/>
<feGaussianBlur stdDeviation="1.03704"/>
<feComposite in2="hardAlpha" operator="out"/>
<feColorMatrix type="matrix" values="0 0 0 0 0 0 0 0 0 0 0 0 0 0 0 0 0 0 0.25 0"/>
<feBlend mode="normal" in2="BackgroundImageFix" result="effect1_dropShadow_4606_22947"/>
<feBlend mode="normal" in="SourceGraphic" in2="effect1_dropShadow_4606_22947" result="shape"/>
</filter>
<clipPath id="clip0_4606_22947">
<rect width="69" height="60" fill="white"/>
</clipPath>
<clipPath id="clip1_4606_22947">
<rect x="16" y="16" width="28" height="28" rx="14" fill="white"/>
</clipPath>
</defs>
</svg>
